<?xml version="1.0" standalone="no"?>
<!DOCTYPE svg PUBLIC "-//W3C//DTD SVG 20010904//EN"
 "http://www.w3.org/TR/2001/REC-SVG-20010904/DTD/svg10.dtd">
<svg version="1.0" xmlns="http://www.w3.org/2000/svg"
 width="2018.000000pt" height="2018.000000pt" viewBox="0 0 2018.000000 2018.000000"
 preserveAspectRatio="xMidYMid meet">
<metadata>
Created by potrace 1.14, written by Peter Selinger 2001-2017
</metadata>
<g transform="translate(0.000000,2018.000000) scale(0.100000,-0.100000)"
fill="#000000" stroke="none">
<path d="M8178 11545 c-2 -2 -25 -6 -53 -9 -103 -14 -123 -18 -240 -48 -691
-177 -1207 -743 -1293 -1416 -4 -31 -7 -133 -6 -227 0 -134 5 -194 22 -280 13
-60 25 -117 29 -125 3 -8 8 -23 9 -32 11 -56 104 -265 162 -363 28 -48 103
-157 131 -189 189 -220 351 -350 579 -466 126 -63 267 -118 351 -135 9 -2 41
-10 73 -18 31 -9 80 -18 109 -22 28 -4 61 -9 73 -12 54 -12 387 -10 485 3 513
71 959 339 1243 749 111 160 190 334 238 525 38 148 45 213 45 390 0 161 -5
219 -30 330 -9 41 -18 82 -20 91 -10 48 -64 187 -105 274 -117 244 -301 466
-525 630 -226 166 -535 295 -790 331 -27 3 -59 9 -70 12 -22 5 -412 12 -417 7z"/>
<path d="M4978 11095 c-2 -1 -50 -5 -108 -9 -58 -3 -116 -8 -130 -10 -14 -3
-47 -7 -75 -11 -27 -3 -64 -8 -82 -11 l-31 -6 0 -1334 -1 -1334 175 0 174 0 0
541 0 541 28 -7 c53 -14 404 -13 496 1 406 62 679 279 766 609 30 113 34 308
9 430 -44 217 -174 386 -371 483 -183 91 -342 120 -650 120 -108 0 -198 -2
-200 -3z m377 -279 c261 -24 442 -162 498 -379 15 -58 17 -214 3 -282 -26
-124 -106 -243 -213 -315 -129 -86 -273 -119 -503 -115 -131 2 -164 6 -222 22
-17 4 -18 38 -18 527 l0 523 43 7 c23 4 78 10 122 13 44 3 81 6 82 7 4 3 146
-3 208 -8z"/>
<path d="M316 11078 c-11 -6 -14 -256 -13 -1353 l0 -1345 758 0 759 0 0 145 0
145 -32 1 c-18 0 -282 0 -585 1 l-553 0 0 484 c0 380 3 484 13 485 6 0 243 1
525 1 l512 1 0 143 0 144 -525 0 -525 0 2 428 3 427 540 2 c297 1 546 2 553 2
10 1 12 34 10 148 l-3 146 -713 1 c-392 1 -719 -2 -726 -6z"/>
<path d="M2114 11058 c9 -13 21 -32 26 -43 5 -11 20 -37 32 -57 13 -20 50 -83
84 -140 33 -57 105 -177 159 -268 92 -155 147 -247 287 -485 33 -55 83 -138
111 -185 29 -47 58 -97 65 -111 14 -27 47 30 -518 -904 -89 -148 -171 -283
-180 -300 -9 -16 -36 -61 -60 -100 -23 -38 -44 -73 -47 -77 -2 -5 88 -8 201
-8 123 0 206 4 206 9 0 6 15 36 34 68 18 32 49 87 68 123 97 179 213 389 283
510 43 74 111 199 151 278 70 136 74 141 87 120 13 -21 109 -188 161 -280 12
-20 51 -86 87 -145 36 -59 119 -200 184 -313 65 -113 139 -241 164 -285 l47
-80 208 -3 c192 -2 208 -1 195 14 -7 9 -18 25 -24 35 -14 26 -68 114 -262 434
-93 154 -216 357 -273 450 -56 94 -140 232 -186 307 -59 95 -82 142 -77 155 3
10 21 41 39 68 119 186 764 1223 764 1230 0 3 -90 5 -199 5 l-199 0 -59 -102
c-33 -57 -134 -231 -225 -388 -189 -325 -213 -368 -280 -504 -45 -90 -50 -97
-63 -80 -8 11 -15 22 -15 25 0 9 -149 281 -280 514 -62 110 -124 220 -138 245
-13 25 -28 50 -32 55 -4 6 -24 42 -45 80 -21 39 -49 89 -62 113 l-25 42 -205
0 -205 0 16 -22z"/>
<path d="M18289 11076 c-2 -2 -54 -7 -114 -10 -61 -4 -122 -8 -135 -11 -14 -2
-45 -6 -70 -9 -106 -13 -145 -18 -152 -22 -4 -3 -7 -600 -6 -1328 l0 -1324 45
-6 c200 -27 792 -29 958 -3 368 58 626 172 816 359 89 89 119 126 181 225 136
217 207 487 211 794 2 120 -9 304 -18 318 -1 3 -6 22 -9 41 -13 87 -68 247
-113 333 -84 158 -183 278 -308 371 -87 64 -172 116 -190 116 -8 0 -16 4 -19
9 -14 22 -261 99 -371 116 -22 3 -53 8 -69 11 -16 3 -50 7 -75 11 -51 6 -556
14 -562 9z m420 -281 c280 -16 521 -113 682 -275 114 -115 203 -283 238 -451
21 -99 23 -123 26 -274 3 -157 -11 -296 -40 -405 -9 -36 -18 -72 -20 -81 -2
-9 -17 -49 -35 -90 -97 -228 -269 -401 -493 -496 -93 -39 -246 -79 -343 -90
-113 -13 -482 -8 -561 7 -2 0 -3 479 -3 1064 l0 1064 66 11 c37 7 114 15 173
18 58 3 107 6 108 7 2 2 61 -1 202 -9z"/>
<path d="M13279 11062 c-13 -2 -34 -58 -45 -117 -1 -5 -14 -55 -29 -110 -14
-55 -28 -107 -30 -115 -2 -8 -15 -60 -30 -115 -14 -55 -44 -170 -66 -255 -22
-85 -76 -291 -120 -457 -43 -167 -79 -311 -79 -321 0 -10 -3 -22 -7 -26 -4 -3
-8 -16 -10 -27 -2 -11 -17 -75 -34 -142 -32 -126 -35 -141 -45 -191 -2 -16 -7
-32 -9 -36 -2 -3 -6 -17 -9 -31 -4 -23 -43 -204 -52 -244 -10 -45 -16 -81 -17
-93 -1 -36 -16 13 -26 88 -11 78 -56 317 -80 422 -5 24 -17 75 -25 113 -22 98
-108 462 -166 702 -27 111 -52 212 -54 225 -3 13 -19 82 -36 153 -17 72 -33
137 -35 145 -2 8 -22 91 -44 183 -23 93 -43 182 -46 199 -3 17 -8 35 -11 40
-3 4 -87 8 -188 8 l-182 0 -123 -462 c-67 -255 -123 -470 -125 -478 -2 -8 -9
-35 -16 -60 -7 -25 -13 -52 -15 -60 -2 -8 -10 -40 -19 -71 -9 -31 -19 -66 -21
-78 -2 -12 -13 -56 -25 -99 -57 -206 -132 -500 -165 -642 -27 -117 -29 -130
-51 -250 -9 -47 -17 -87 -19 -89 -2 -2 -7 7 -10 20 -6 29 -74 363 -81 399 -2
14 -8 43 -13 65 -6 22 -17 71 -26 108 -8 38 -22 101 -31 140 -19 89 -17 80
-49 212 -14 61 -28 119 -31 130 -2 11 -17 76 -33 145 -96 403 -120 508 -125
530 -2 14 -16 72 -30 130 -15 58 -29 119 -32 135 -3 17 -16 75 -29 130 -14 55
-27 110 -30 123 -5 22 -7 22 -190 22 -102 0 -185 -2 -185 -5 0 -2 23 -93 51
-202 28 -109 52 -205 54 -213 2 -8 24 -96 49 -195 26 -100 48 -190 51 -200 2
-11 16 -65 30 -120 15 -55 28 -107 30 -115 2 -8 58 -231 125 -495 67 -264 126
-496 130 -515 4 -19 10 -42 13 -50 4 -8 9 -26 11 -40 9 -47 137 -545 142 -549
5 -5 357 -2 362 4 4 3 114 402 222 800 10 39 37 138 60 220 23 83 43 157 45
165 2 8 22 83 45 165 23 83 48 175 56 205 8 30 19 69 25 86 5 17 11 40 13 50
5 22 53 227 63 264 3 14 8 34 10 45 1 11 12 63 23 115 10 52 22 111 25 130 9
50 12 48 20 -17 4 -31 9 -66 11 -77 2 -11 6 -38 10 -60 3 -22 17 -96 30 -165
14 -70 27 -137 30 -151 8 -44 45 -198 111 -470 35 -146 66 -274 67 -285 2 -11
11 -49 21 -85 9 -36 18 -72 20 -80 6 -28 34 -146 76 -315 23 -93 42 -174 43
-180 1 -5 21 -90 45 -187 l43 -178 184 0 183 0 15 53 c9 28 40 140 70 247 31
107 61 213 68 235 6 22 13 45 14 50 5 22 35 128 72 260 22 77 55 190 72 250
17 61 47 166 66 235 19 69 45 161 58 205 13 44 43 148 66 230 23 83 78 276
122 430 43 154 81 287 83 295 2 8 16 57 30 109 15 51 24 95 21 98 -6 6 -311
10 -337 5z"/>
<path d="M13955 11059 c-2 -3 -4 -612 -3 -1352 l0 -1347 759 0 759 0 0 145 c0
109 -3 145 -12 146 -7 0 -271 1 -585 1 l-573 1 0 483 c0 380 3 484 13 485 6 0
243 1 525 1 l512 1 0 143 0 144 -525 0 -525 0 0 429 0 429 553 0 552 -1 3 147
c1 80 -1 146 -5 147 -40 4 -1446 3 -1448 -2z"/>
<path d="M15923 9710 l0 -1350 749 0 c705 0 748 1 749 18 3 57 1 263 -3 267
-2 2 -261 5 -576 6 l-572 2 0 1203 0 1204 -173 0 -174 0 0 -1350z"/>
</g>
</svg>
